 http://img10.imageshack.us/img10/8498/liesinplainsight2010thu.jpg

Country.......: USA
Genre.........: Dramat
Date release..: 03.10.2010 [World]
Director......: Patricia Cardoso
Writers.......: Teena Booth, Noa Greenberg
Duration......: 88 min.
More..........: http://www.imdb.com/title/tt1675312
Trailer.......:

Pilot :
Eva and Sofia are cousins who spent their childhood together and grew together. When Eva commits suicide, Sofia begins to dwell on the past, revealing its dark secrets.

Cats :
Martha Higareda   	 ...  	Sofia Delgado
Chad Michael Murray 	... 	Ethan McAllister
Yul Vazquez 	... 	Rafael Reyes
Benito Martinez 	... 	Hector Delgado
Daniela Bobadilla 	... 	Young Sofia
Cheyenne Haynes 	... 	Eva Reyes
Lupe Ontiveros 	... 	Doctor Stone
Kendra Jain 	... 	Alexa Reyes
Christoph Sanders 	... 	Christian
Rosie Perez 	... 	Marisol Reyes
Connor Weil 	... 	Derek
Ingrid Oliu 	... 	Abby
Daniela Balbontin 	... 	Young Woman
Gleb Kaminer 	... 	Airline Employee 

Data Technical :
!!! SAMPLE !!!
Audio.....: English
Subtitles.: English .sub
Format                           : AVI
Format/Info                      : Audio Video Interleave
File size                        : 699 MiB
Duration                         : 1h 28mn
Overall bit rate                 : 1 110 Kbps
Writing library                  : VirtualDub build 32842/release
Video
ID                               : 0
Format                           : MPEG-4 Visual
Format profile                   : Advanced Simple@L5
Format settings, BVOP            : Yes
Format settings, QPel            : No
Format settings, GMC             : No warppoints
Format settings, Matrix          : Default (H.263)
Muxing mode                      : Packed bitstream
Codec ID                         : XVID
Codec ID/Hint                    : XviD
Duration                         : 1h 28mn
Bit rate                         : 972 Kbps
Width                            : 640 pixels
Height                           : 352 pixels
Display aspect ratio             : 16:9
Frame rate                       : 23.976 fps
Color space                      : YUV
Chroma subsampling               : 4:2:0
Bit depth                        : 8 bits
Scan type                        : Progressive
Bits/(Pixel*Frame)               : 0.180
Stream size                      : 612 MiB (88%)
Writing library                  : XviD 62
Audio
ID                               : 1
Format                           : MPEG Audio
Format version                   : Version 1
Format profile                   : Layer 3
Mode                             : Joint stereo
Mode extension                   : MS Stereo
Codec ID                         : 55
Codec ID/Hint                    : MP3
Duration                         : 1h 28mn
Bit rate mode                    : Constant
Bit rate                         : 128 Kbps
Channel(s)                       : 2 channels
Sampling rate                    : 48.0 KHz
Stream size                      : 80.6 MiB (12%)
Alignment                        : Split accross interleaves
Interleave, duration             : 42 ms (1.00 video frame)
Interleave, preload duration     : 500 ms
Writing library                  : LAME3.98r
Encoding settings                : -m j -V 4 -q 3 -lowpass 17 -b 128

Screen : 
http://img687.imageshack.us/img687/6260/liesinplainsight2010s1.jpg 
http://img851.imageshack.us/img851/9288/liesinplainsight2010s2.jpg 
http://img163.imageshack.us/img163/3830/liesinplainsight2010s3.jpg 
http://img52.imageshack.us/img52/6243/liesinplainsight2010s4.jpg 
http://img824.imageshack.us/img824/2710/liesinplainsight2010s5.jpg